<svg xmlns="http://www.w3.org/2000/svg" width="200" height="200" viewBox="0 0 52.917 52.917"><path fill="#34d4db" fill-rule="evenodd" d="M0 0h52.917v52.917H0z"/><g transform="rotate(15.456 919.454 146.669)"><path opacity=".99" fill="#e74c3c" fill-rule="evenodd" d="M18.521 252.021H31.75v3.969H18.521z"/><path opacity=".99" fill="#c0392b" fill-rule="evenodd" d="M18.521 253.344H31.75v1.323H18.521z"/><path d="m31.75 255.99 4.507-1.979-4.507-1.99Z" fill="#e67e22"/><path d="M35.19 253.542v.938l1.068-.469z" fill="#e74c3c"/><rect ry="1.323" y="252.021" x="15.875" height="3.969" width="2.646" opacity=".99" fill="#e74c3c" fill-rule="evenodd"/><rect ry="0" y="252.021" x="17.198" height="3.969" width="1.323" opacity=".99" fill="#bdc3c7" fill-rule="evenodd"/><path d="M17.59 252.019v3.97M18.123 252.019v3.97" fill="none" stroke="#34495e" stroke-width=".265"/></g><g transform="rotate(-17.399 -737.302 152.894)"><rect ry="0" y="258.635" x="35.719" height="15.875" width="10.583" opacity=".99" fill="#2980b9" fill-rule="evenodd"/><path d="M34.396 259.958h2.646M34.396 270.542h2.646M34.396 267.896h2.646M34.396 265.25h2.646M34.396 262.604h2.646M34.396 273.187h2.646" fill="none" stroke="#c0392b" stroke-width=".529"/><path d="M38.365 261.281h6.614M38.365 262.604h6.614M38.365 266.573h6.614M38.365 265.25h6.614M38.365 263.927h6.614" fill="none" stroke="#34495e" stroke-width=".926"/></g><g transform="rotate(20.702 676.26 155.961)"><ellipse ry="1.984" rx="3.307" cx="11.245" cy="277.156" opacity=".99" fill="#27ae60" fill-rule="evenodd"/><path d="M14.552 277.156v-6.614s.7-1.323 1.323-1.323c.624 0 .7 1.323 1.323 1.323.624 0 1.323-1.323 1.323-1.323" fill="none" stroke="#27ae60" stroke-width=".529"/><path d="M14.552 273.187s.7-1.322 1.323-1.322c.624 0 .7 1.322 1.323 1.322.624 0 1.323-1.322 1.323-1.322" fill="none" stroke="#27ae60" stroke-width=".529"/></g><text xml:space="preserve" style="line-height:1.25" x="-68.657" y="261.426" transform="rotate(-19.352 -715.766 -122.042)" font-weight="400" font-size="10.583" font-family="sans-serif" letter-spacing="0" word-spacing="0" fill="#9b59b6" stroke-width=".265"><tspan x="-68.657" y="261.426">A</tspan></text><text y="139.301" x="222.887" style="line-height:1.25" xml:space="preserve" transform="rotate(56.47 227.273 -122.042)" font-weight="400" font-size="10.583" font-family="sans-serif" letter-spacing="0" word-spacing="0" fill="#16a085" stroke-width=".265"><tspan y="139.301" x="222.887">2</tspan></text><g transform="translate(1.058 -245.142)"><path d="M24.506 289.856s-.205-3.616-1.033-5.164c-.574-1.073-2.116-1.457-2.582-2.582a3.497 3.497 0 0 1 0-2.581c.466-1.125 1.458-2.117 2.582-2.582 1.431-.593 3.216-.593 4.648 0 1.124.465 2.116 1.457 2.582 2.582.329.795.329 1.786 0 2.581-.466 1.125-2.008 1.51-2.582 2.582-.829 1.548-1.033 5.164-1.033 5.164z" fill="#f39c12" stroke="#e67e22" stroke-width=".529"/><path d="M25.539 289.856s-.905-4.849-1.68-6.792c-.775-1.943-1.42-.98-.902-2.503.277-.814 1.238-1.785 2.065-1.549.721.206.067 2.11.817 2.097.74-.014.024-1.881.732-2.097.824-.25 1.789.735 2.066 1.55.518 1.521-.127.559-.902 2.502-.775 1.943-1.68 6.792-1.68 6.792" fill="none" stroke="#f1c40f" stroke-width=".361"/><path d="M24.506 290.373h2.582M24.506 290.889h2.582M24.506 291.405h2.582M24.506 291.922h2.582" fill="none" stroke="#e67e22" stroke-width=".361"/><circle r=".258" cy="292.18" cx="25.797" opacity=".99" fill="#e67e22" fill-rule="evenodd" stroke="#e67e22" stroke-width=".361"/><path d="M24.606 289.856h2.381" fill="none" stroke="#e67e22" stroke-width=".529"/></g></svg>