<svg width="200mm" height="200mm" viewBox="0 0 200 200" xmlns="http://www.w3.org/2000/svg"><defs><linearGradient id="a"><stop offset="0" stop-color="#2c3e50"/><stop offset="1" stop-color="#2c3e50" stop-opacity="0"/></linearGradient></defs><path fill="#e67e22" d="M-1.929-.156H201.41v200.741H-1.929z"/><g transform="matrix(.92223 0 0 .89038 2.311 -74.02)"><ellipse ry="37.042" rx="39.688" cy="157.905" cx="103.943" fill="#f1c40f"/><path transform="matrix(.52762 0 0 .57151 32.862 74.621)" d="M67.113 174.246c16.959 17.219 27.925 39.686 31.75 63.5" fill="none" stroke="#f1c40f" stroke-width=".265"/><path transform="matrix(-.54837 0 0 .65562 63.776 59.05)" d="M-141.127 171.574c16.959 17.218 27.925 39.685 31.75 63.5" fill="none" stroke="#f1c40f" stroke-width=".265"/><g transform="matrix(.51307 0 0 .80052 193.458 134.43)" fill="#bdc3c7" fill-rule="evenodd" stroke="#bdc3c7" stroke-width="1.465" stroke-linejoin="round"><rect width="75.087" height="5.564" x="-211.143" y="95.139" ry="2.782"/><rect ry="2.782" y="100.703" x="-211.143" height="5.564" width="75.087"/><rect width="75.087" height="5.564" x="-211.143" y="106.267" ry="2.782"/><rect ry="2.782" y="111.831" x="-211.143" height="5.564" width="75.087"/><rect width="75.087" height="5.564" x="-211.143" y="117.395" ry="2.782"/></g><path d="M123.49 210.419c-.318-.318-1.377-.34-18.707-.387-12.12-.033-18.559.015-18.923.142-.304.106-.582.164-.617.128-.036-.035-.153-.567-.262-1.182-1.424-8.09-4.022-15.68-7.655-22.364-.566-1.041-1.029-1.936-1.029-1.99 0-.052.702.471 1.56 1.164 5.108 4.126 11.165 6.94 17.811 8.276 13.046 2.62 26.987-1.212 36.333-9.989.546-.513.993-.891.993-.841 0 .05-.585 1.274-1.299 2.72-3.205 6.492-5.917 14.672-7.2 21.718-.228 1.247-.471 2.42-.541 2.605-.123.323-.141.323-.464 0z" fill="#f1c40f" fill-rule="evenodd" stroke="#f1c40f" stroke-width="1.0464139" stroke-linejoin="round"/><g fill="none" stroke="#000" stroke-width=".265"><path d="M163.853 167.543c-1.308.17-.875-1.678-.284-2.173 1.603-1.341 3.875-.008 4.63 1.606M181.24 165.275c-1.308.17-.875-1.678-.284-2.173 1.603-1.341 3.875-.008 4.63 1.606" transform="matrix(1.41111 0 0 1.91057 -140.253 -159.647)"/><path d="M168.2 166.976c-1.308.17-.876-1.678-.284-2.173 1.603-1.341 3.875-.008 4.63 1.606" transform="matrix(1.41111 0 0 1.91057 -140.253 -159.647)"/><path d="M172.546 166.41c-1.307.17-.875-1.68-.283-2.174 1.603-1.341 3.874-.008 4.63 1.606" transform="matrix(1.41111 0 0 1.91057 -140.253 -159.647)"/><path d="M176.893 165.842c-1.308.17-.875-1.678-.284-2.173 1.603-1.341 3.875-.008 4.63 1.606" transform="matrix(1.41111 0 0 1.91057 -140.253 -159.647)"/></g><path transform="matrix(.71981 0 0 1.00038 34.1 -.07)" d="M102.243 210.254c.468-19.915 7.48-39.293 19.386-55.215" fill="none" stroke="#000" stroke-width=".265"/><path d="M104.183 210.846c.674-17.724-4.497-35.328-14.205-50.13" fill="none" stroke="#000" stroke-width=".265"/><path transform="matrix(.25374 0 0 .67505 126.268 27.455)" d="m-83.923 126.482-3.765-7.448-3.765-7.447 8.332.462 8.333.463-4.567 6.985z" fill="#f1c40f" fill-rule="evenodd" stroke="#f1c40f" stroke-width="1.465" stroke-linejoin="round"/><path d="m-83.923 126.482-3.765-7.448-3.765-7.447 8.332.462 8.333.463-4.567 6.985z" transform="matrix(.23873 .08598 -.22873 .63512 174.487 42.553)" fill="#f1c40f" fill-rule="evenodd" stroke="#f1c40f" stroke-width="1.465" stroke-linejoin="round"/><path d="m-83.923 126.482-3.765-7.448-3.765-7.447 8.332.462 8.333.463-4.567 6.985z" transform="matrix(.22881 -.10968 .29178 .60873 68.344 28.007)" fill="#f1c40f" fill-rule="evenodd" stroke="#f1c40f" stroke-width="1.465" stroke-linejoin="round"/><path d="m-83.923 126.482-3.765-7.448-3.765-7.447 8.332.462 8.333.463-4.567 6.985z" transform="matrix(.14687 .20691 -.55046 .39074 226.824 98.448)" fill="#f1c40f" fill-rule="evenodd" stroke="#f1c40f" stroke-width="1.465" stroke-linejoin="round"/><path d="m-83.923 126.482-3.765-7.448-3.765-7.447 8.332.462 8.333.463-4.567 6.985z" transform="matrix(.15351 -.20204 .5375 .4084 11.782 54.536)" fill="#f1c40f" fill-rule="evenodd" stroke="#f1c40f" stroke-width="1.465" stroke-linejoin="round"/></g><path d="M149.51 162.23v7.22h5.23v-3.723q0-.45.09-.646.096-.195.25-.195t.243.195q.097.195.097.646v4.983h-7.506q-.243 0-.348-.18-.105-.18-.105-.45 0-.286.105-.45.105-.18.348-.18h.915v-15.04h-.915q-.243 0-.348-.166-.105-.18-.105-.465 0-.285.105-.45.105-.18.348-.18h7.15v4.337q0 .45-.097.646-.09.195-.243.195-.154 0-.251-.195-.09-.195-.09-.646v-3.077h-4.874v6.56h2.438v-1.426q0-.45.097-.646.097-.195.25-.195.147 0 .244.195t.097.646v4.112q0 .45-.097.646-.097.195-.243.195-.154 0-.251-.195t-.097-.646v-1.426zM165.388 160.278h-7.417q-.243 0-.348-.18-.106-.18-.106-.465 0-.27.106-.45.105-.18.348-.18h7.417q.243 0 .348.18.105.18.105.465 0 .27-.105.45t-.348.18zm0 4.518h-7.417q-.243 0-.348-.165-.106-.18-.106-.465 0-.286.106-.45.105-.18.348-.18h7.417q.243 0 .348.18.105.164.105.45 0 .285-.105.465-.105.165-.348.165zM168.53 157.711v1.276q.866-1.726 1.74-1.726.526 0 .923.525.397.51.664 1.561.454-1.05.915-1.56.47-.526.94-.526.736 0 1.173.886.575 1.14.575 2.491v8.811h.575q.243 0 .348.18.106.165.106.45 0 .27-.106.45-.105.181-.348.181h-1.255v-9.952q0-.96-.316-1.59-.315-.631-.728-.631-.373 0-.786.525-.413.51-.94 2.027v8.36h.568q.243 0 .348.18.105.165.105.45 0 .27-.105.45-.105.181-.348.181h-1.255v-9.862q0-1.005-.324-1.65-.316-.661-.713-.661-.364 0-.72.435-.494.616-1.037 2.117v8.36h.575q.243 0 .348.18.106.165.106.45 0 .27-.106.45-.105.181-.348.181h-1.83q-.243 0-.348-.18-.105-.18-.105-.45 0-.286.105-.45.105-.18.348-.18h.575v-10.463h-.575q-.243 0-.348-.18-.105-.18-.105-.465 0-.27.105-.45t.348-.18zM184.416 158.987v-.42q0-.465.097-.66.097-.196.243-.196.153 0 .25.196.098.195.098.66v2.852q-.008.465-.105.66-.09.195-.243.195-.138 0-.235-.165-.09-.18-.105-.585-.049-1.066-.762-2.026-.704-.961-1.902-.961-1.514 0-2.3 1.756-.785 1.756-.785 4.023 0 2.446.866 4.037.866 1.592 2.243 1.592.793 0 1.611-.54.826-.541 1.49-1.742.17-.3.3-.3.137 0 .226.18.098.165.098.42 0 .646-.818 1.636-1.32 1.606-2.94 1.606-1.643 0-2.704-1.936-1.052-1.951-1.052-4.938 0-3.047 1.077-5.059 1.085-2.01 2.728-2.01 1.563 0 2.624 1.725z" style="line-height:1.25;-inkscape-font-specification:'Courier New, Normal'" font-size="22.578" font-family="Courier New" letter-spacing="0" word-spacing="0" fill="#2c3e50" stroke="#2c3e50" stroke-width=".433" transform="translate(0 -97)"/><path d="M188.068 162.59h4.01v-.38q0-.346.074-.496.075-.15.193-.15.112 0 .187.15.074.15.074.496v1.348h-5.048v-1.429q1.592-2.65 3.096-5.393.703-1.28.964-1.879.26-.599.354-1.048.1-.461.1-.922 0-1.245-.541-2.201-.541-.957-1.306-.957-.684 0-1.212.726-.528.726-.684 1.798-.037.277-.093.357-.075.115-.174.115-.106 0-.18-.126-.069-.139-.069-.323 0-.553.324-1.498.329-.945.9-1.487.579-.541 1.182-.541.976 0 1.678 1.256.703 1.256.703 2.846 0 .669-.118 1.233-.118.553-.404 1.222-.28.657-1.014 1.993-1.84 3.365-2.996 5.22z" style="line-height:1.25;-inkscape-font-specification:'Courier New, Normal'" font-size="17.334" font-family="Courier New" letter-spacing="0" word-spacing="0" fill="#2c3e50" stroke="#2c3e50" stroke-width=".433" transform="translate(0 -97)"/><path d="M13.853 88.344c.7.09 1.365.343 1.98.68.798.506 1.538 1.112 2.133 1.846.45.601.838 1.247 1.19 1.909l-.26.012c-.352-.66-.74-1.304-1.19-1.903-.594-.732-1.333-1.336-2.13-1.836-.617-.333-1.283-.588-1.984-.667l.261-.041zM66.16 129.142a69.418 69.418 0 0 1-2.153-1.625c-.459-.398-.878-.838-1.324-1.249l.26-.021c.444.412.864.85 1.321 1.247a60.27 60.27 0 0 0 2.158 1.622l-.262.026z" fill="none" stroke="#34495e" stroke-width="1.465" stroke-linejoin="round"/><path d="M14.5 127.461c.005-1.502.007-3.004.01-4.506a11714.468 11714.468 0 0 0 .007-25.325c.002-2.587.055-5.179-.25-7.752-.107-.635-.094-1.333-.447-1.892l.263-.015c.345.568.337 1.263.44 1.904.29 2.575.23 5.167.224 7.755a12189.634 12189.634 0 0 0 .008 25.325c.002 1.502.004 3.004.009 4.506H14.5zM13.3 88.03c-.604 1.02-1.33 1.953-2.104 2.846-.418.502-.883.958-1.287 1.471l-.26-.017c.405-.515.872-.97 1.292-1.472.775-.89 1.5-1.821 2.096-2.844l.262.016zM16.024 128.27c.934.436 1.925.663 2.94.805 1.452.154 2.914.158 4.372.167 2.388.005 4.777 0 7.165-.001l9.413-.003h7.97l4.346-.002h12.856l.259.041h-13.37l-4.336-.001H40.15c-3.138 0-6.275 0-9.413.002-2.551.002-5.102.007-7.653.003-1.459-.01-2.922-.013-4.374-.17-1.019-.144-2.012-.375-2.949-.813l.262-.029zM65.652 129.931c-.576.508-1.193.96-1.83 1.387-.518.402-1.1.695-1.671 1.006-.302.156-.152.075-.45.242l-.26-.027c.297-.169.147-.088.449-.243.57-.313 1.156-.599 1.672-1.003a16.39 16.39 0 0 0 1.827-1.386l.263.024z" fill="none" stroke="#34495e" stroke-width="1.465" stroke-linejoin="round"/><path d="M16.97 97.585c.809.534 1.968 1.299 2.196 1.557.23.257.23.609.364.7.135.091.57.263.622.39.052.128.052.427.17.584.118.157.355.343.557.503.202.16.43.342.483.492.054.15.054.415.189.656.134.24.414.574.612.889.198.315.337.645.502.957.164.311.359.617.492.83.134.211.212.336.314.446.102.11.246.226.377.383.132.157.276.386.34.543.063.156.07.286.137.495.067.21.235.61.414.768.18.159.46.27.79.481.332.211.756.548 1.016.806.259.26.402.486.534.64.131.156.275.272.406.429.132.157.272.38.47.586.196.205.479.43.674.637.196.208.337.433.408.591.07.158.087.313.153.403.067.09.197.196.322.349.125.152.284.405.472.542s.506.263.683.414c.178.15.34.407.528.545.189.139.47.25.935.568.466.318 1.298.977 1.623 1.18.325.205.488.205.676.312.188.107.52.37.69.452.171.081.367.081.47.188.105.107.306.425.408.48.101.054.263.054.384.107.122.053.288.185.407.226.119.041.28.041.401.094.122.054.288.185.407.226.119.041.314.041.419.148.104.106.266.363.454.501.189.14.468.25.665.354.197.105.362.236.616.277.255.042.685.042 1.076.121.392.08.797.24 1.102.364.304.125.508.215.777.349.269.134.643.333.992.41.349.078.797.078 1.181.186.385.107.796.324 1.131.483.335.16.61.268.805.372.195.104.345.223.675.324.329.1.897.213 1.421.424.524.21 1.143.578 1.58.714.435.135.849.135 1.177.134.329 0 .572 0 .733.013.16.012.244.038.387.092.142.053.364.142.593.18.23.038.517.038.777.091.261.053.552.169.743.218.192.049.353.049.474.102.122.053.286.184.608.225.322.042.896.042 1.282.095.387.054.666.164.863.269.197.105.362.235.684.277.322.041.86.041 1.4.041" fill="none" stroke="#8e44ad" stroke-width="1.556"/><path d="M35.947 284.456h-5.229v-4.69q-4.005 4.897-9.553 4.897-4.12 0-6.545-2.541-2.407-2.541-2.407-7.024v-18.22q0-1.653-.358-2.087-.357-.455-1.674-.455v-.31h7.354v.31q-1.166 0-1.655.414-.47.392-.47 1.9v16.713q0 5.247 2.238 7.498 2.238 2.232 5.096 2.232 4.495 0 7.974-4.442v-20.596q0-2.706-.432-3.202-.433-.517-1.354-.517h-.264v-.31h7.279v.31q-1.354.083-1.712.496-.338.413-.338 1.57v24.79q0 1.467.131 1.921.132.455.527.765.414.289 1.392.289zM53.625 270.45h-8.087l-4.194 11.506q-.432 1.24-.432 1.53 0 .68.921.68v.29h-4.118v-.29q.827 0 1.391-.433.564-.455 1.242-2.314l10.042-27.847h.47l9.893 26.897q0 .207.752 1.962.771 1.736 2.332 1.736v.289h-6.47v-.29q.885 0 .885-.764 0-.516-.433-1.652-.075-.083-.132-.269-.037-.206-.056-.206zm-7.823-.847h7.485l-3.743-10.37zM90.863 254.027h4.363v.31q-2.2.123-2.2 2.54 0 .517.112 1.426l2.897 23.054q.263 1.736.583 2.231.338.475 1.372.579v.289h-6.225v-.29q1.223.042 1.223-1.321 0-.31-.113-1.22l-2.821-22.351-9.93 25.182h-.188l-9.987-25.14-2.802 22.475q-.075.517-.075 1.178 0 1.198 1.26 1.198v.289h-4.231v-.29q.959 0 1.222-.268.282-.268.433-.826.15-.579.225-1.28l3.16-24.584q-.771-2.045-1.542-2.458-.771-.414-1.486-.414v-.31h5.228l9.742 24.894zM110.158 270.12v-1.736h7.937v1.735zM138.858 254.027v.31q-.546-.062-1.223.185-.658.248-.79.723-.112.476-.112 2.252v23.364q0 1.901.131 2.335.15.413.546.702.413.269 1.448.269v.289h-7.391v-.29q1.391 0 1.73-.578.338-.599.338-2.685v-23.137q0-2.17-.376-2.83-.376-.682-1.692-.6v-.31zM141.698 254.336v-.31h7.898q4.213 0 6.113 1.034 1.918 1.032 2.783 2.582.884 1.528.884 4.049 0 3.863-2.426 5.805-2.426 1.942-6.583 1.859v-.29q2.633 0 4.27-1.776 1.655-1.776 1.655-4.669 0-2.251-.81-3.987-.789-1.756-2.237-2.665-1.448-.908-4.42-.908h-1.974v26.05q0 2.21.451 2.644.451.413 1.711.413v.289h-7.315v-.29q1.955 0 1.955-1.962v-25.203q0-1.611-.376-2.127-.376-.538-1.58-.538zM187.436 254.027h4.363v.31q-2.2.123-2.2 2.54 0 .517.112 1.426l2.897 23.054q.263 1.736.583 2.231.338.475 1.373.579v.289h-6.226v-.29q1.223.042 1.223-1.321 0-.31-.113-1.22l-2.821-22.351-9.93 25.182h-.188l-9.986-25.14-2.803 22.475q-.075.517-.075 1.178 0 1.198 1.26 1.198v.289h-4.231v-.29q.959 0 1.222-.268.282-.268.433-.826.15-.579.225-1.28l3.16-24.584q-.771-2.045-1.542-2.458-.771-.414-1.486-.414v-.31h5.228l9.742 24.894z" style="line-height:1.25;-inkscape-font-specification:'Felix Titling, Normal'" font-size="40.368" font-family="Felix Titling" letter-spacing="0" word-spacing="0" fill="#8e44ad" stroke="#8e44ad" stroke-width="1.009" transform="translate(0 -97)"/><path d="M141.852 210.063v-.368q0-.407.085-.578.085-.17.213-.17.134 0 .22.17.084.17.084.578v2.495q-.007.407-.092.578-.078.17-.212.17-.12 0-.206-.144-.078-.157-.092-.512-.042-.932-.666-1.773-.616-.84-1.665-.84-1.325 0-2.012 1.536-.687 1.537-.687 3.52 0 2.14.758 3.533.758 1.392 1.963 1.392.694 0 1.41-.473.722-.472 1.303-1.523.149-.263.262-.263.12 0 .199.158.085.144.085.368 0 .564-.716 1.431-1.155 1.405-2.572 1.405-1.438 0-2.366-1.694-.921-1.707-.921-4.32 0-2.667.942-4.427.95-1.76 2.388-1.76 1.367 0 2.295 1.51z" style="line-height:1.25;-inkscape-font-specification:'Courier New, Normal'" font-size="19.756" font-family="Courier New" letter-spacing="0" word-spacing="0" fill="#2c3e50" stroke="#2c3e50" stroke-width=".433" transform="translate(0 -97)"/><path d="M189.167 209.29h4.01v-.38q0-.346.075-.496.074-.15.192-.15.112 0 .187.15t.075.495v1.349h-5.048v-1.43q1.591-2.65 3.096-5.393.702-1.279.963-1.878.261-.6.354-1.049.1-.46.1-.922 0-1.244-.54-2.2-.542-.957-1.306-.957-.684 0-1.213.726-.528.726-.683 1.798-.038.276-.094.357-.074.115-.174.115-.105 0-.18-.127-.068-.138-.068-.322 0-.554.323-1.498.33-.945.901-1.487.578-.542 1.181-.542.976 0 1.679 1.256.702 1.257.702 2.847 0 .668-.118 1.233-.118.553-.404 1.221-.28.657-1.013 1.994-1.84 3.365-2.996 5.22zM166.413 209.422h4.01v-.38q0-.346.075-.496.074-.15.192-.15.112 0 .187.15.074.15.074.496v1.348h-5.047v-1.43q1.591-2.65 3.095-5.392.703-1.28.964-1.879t.354-1.048q.1-.461.1-.922 0-1.245-.541-2.201-.54-.957-1.306-.957-.683 0-1.212.726-.528.726-.684 1.798-.037.277-.093.357-.074.115-.174.115-.106 0-.18-.126-.069-.139-.069-.323 0-.553.324-1.498.33-.945.901-1.487.578-.541 1.181-.541.976 0 1.679 1.256.702 1.256.702 2.846 0 .669-.118 1.233-.118.553-.404 1.222-.28.657-1.013 1.993-1.84 3.365-2.997 5.22zM143.924 209.951h4.01v-.38q0-.346.074-.496.075-.15.193-.15.112 0 .186.15.075.15.075.496v1.348h-5.048v-1.429q1.591-2.65 3.096-5.393.702-1.28.963-1.879t.355-1.048q.1-.461.1-.922 0-1.245-.542-2.201-.54-.957-1.305-.957-.684 0-1.212.726-.529.726-.684 1.798-.037.277-.093.357-.075.116-.174.116-.106 0-.18-.127-.07-.139-.07-.323 0-.553.324-1.498.33-.945.901-1.487.579-.541 1.182-.541.976 0 1.678 1.256.703 1.256.703 2.846 0 .669-.119 1.233-.118.553-.404 1.222-.28.657-1.013 1.994-1.84 3.364-2.996 5.22z" style="line-height:1.25;-inkscape-font-specification:'Courier New, Normal'" font-size="17.334" font-family="Courier New" letter-spacing="0" word-spacing="0" fill="#2c3e50" stroke="#2c3e50" stroke-width=".433" transform="translate(0 -97)"/><path d="M157.302 210.663h-6.49q-.212 0-.305-.158-.092-.157-.092-.407 0-.236.092-.394.093-.157.305-.157h6.49q.212 0 .304.157.093.158.093.407 0 .237-.093.394-.092.158-.304.158zm0 3.953h-6.49q-.212 0-.305-.144-.092-.158-.092-.407 0-.25.092-.394.093-.158.305-.158h6.49q.212 0 .304.158.093.144.093.394t-.093.407q-.092.144-.304.144zM164.472 219.79v-1.588q-1.297 2.022-2.77 2.022-1.07 0-1.672-.998-.603-1.011-.603-2.469 0-1.602.794-2.797.793-1.196 2.317-1.196.41 0 .892.105.482.092 1.042.303v-1.787q0-.906-.454-1.576-.453-.67-1.36-.67-.694 0-1.948.75-.227.13-.29.13-.114 0-.2-.157-.077-.158-.077-.394 0-.223.07-.355.1-.197.801-.538 1.106-.552 1.672-.552 1.127 0 1.757 1.038.631 1.024.631 2.324v7.303h.794q.22 0 .311.157.092.145.092.394 0 .237-.092.394-.092.158-.311.158zm0-5.489q-.418-.223-.886-.328-.467-.105-.985-.105-1.296 0-2.026 1.037-.553.775-.553 1.852 0 .998.418 1.681.426.683 1.233.683.772 0 1.431-.565.666-.578 1.368-1.825zM175.918 212.792v5.516q0 .394-.085.565-.085.17-.22.17-.127 0-.212-.17-.085-.171-.085-.565v-5.516h-2.636q-.212 0-.304-.145-.092-.157-.092-.407 0-.25.092-.394.092-.158.304-.158h2.636v-5.49q0-.394.085-.564.085-.171.22-.171.127 0 .212.17.085.171.085.565v5.49h2.636q.212 0 .304.158.092.144.092.394t-.092.407q-.092.145-.304.145zM182.082 203.44v7.316q1.077-2.6 2.6-2.6 1.304 0 2.232 1.76.928 1.746.928 4.294 0 2.574-.942 4.36-.936 1.787-2.218 1.787-1.559 0-2.6-2.6v2.166h-1.396q-.212 0-.304-.157-.093-.158-.093-.394 0-.25.093-.394.092-.158.304-.158h.8v-14.263h-.8q-.212 0-.304-.158-.093-.157-.093-.407 0-.236.093-.394.092-.158.304-.158zm5.165 10.823q0-2.089-.772-3.533-.773-1.458-1.807-1.458-1.035 0-1.807 1.458-.772 1.444-.772 3.533 0 2.088.772 3.546.772 1.444 1.807 1.444 1.034 0 1.807-1.444.772-1.458.772-3.546z" style="line-height:1.25;-inkscape-font-specification:'Courier New, Normal'" font-size="19.756" font-family="Courier New" letter-spacing="0" word-spacing="0" fill="#2c3e50" stroke="#2c3e50" stroke-width=".433" transform="translate(0 -97)"/></svg>