<svg xmlns="http://www.w3.org/2000/svg" width="200" height="200" viewBox="0 0 52.917 52.917"><path fill="#ecf0f1" fill-rule="evenodd" d="M0 0h52.917v52.917H0z"/><g style="line-height:1.25;-inkscape-font-specification:'Symbol, Normal';font-variant-ligatures:normal;font-variant-caps:normal;font-variant-numeric:normal;font-feature-settings:normal;text-align:start" font-weight="400" font-size="42.333" font-family="Symbol" letter-spacing="0" word-spacing="0" fill="#2980b9" stroke-width=".265"><path d="M18.808 254.65v3.039H12.36q-.703 6.8-.703 9.322 0 2.005.745 2.915.764.889 1.901.889.848 0 1.468-.58.62-.578.91-1.983h.723q-.352 3.39-1.51 4.692-1.157 1.281-2.707 1.281-1.633 0-2.728-1.467-1.096-1.489-1.096-5.292 0-2.997.744-9.777H8.163q-1.674 0-2.625.62-.95.6-1.881 2.294h-.765q1.488-3.968 2.667-4.96 1.178-.993 3.348-.993z" transform="translate(0 -244.083)" aria-label="t"/></g><text xml:space="preserve" style="line-height:1.25" x="18.596" y="268.879" font-weight="400" font-size="10.583" font-family="sans-serif" letter-spacing="0" word-spacing="0" fill="#2c3e50" stroke-width=".265" transform="translate(0 -244.083)"><tspan x="18.596" y="268.879">aller</tspan></text><text xml:space="preserve" style="line-height:1.25;-inkscape-font-specification:'sans-serif, Normal';font-variant-ligatures:normal;font-variant-caps:normal;font-variant-numeric:normal;font-feature-settings:normal;text-align:start" x="22.867" y="255.98" font-weight="400" font-size="12.7" font-family="sans-serif" letter-spacing="0" word-spacing="0" fill="#d35400" stroke-width=".265" transform="translate(0 -244.083)"><tspan x="22.867" y="255.98" style="-inkscape-font-specification:'sans-serif, Normal';font-variant-ligatures:normal;font-variant-caps:normal;font-variant-numeric:normal;font-feature-settings:normal;text-align:start">UAM</tspan></text><text y="277.875" x="40.292" style="line-height:1.25;-inkscape-font-specification:'sans-serif, Normal';font-variant-ligatures:normal;font-variant-caps:normal;font-variant-numeric:normal;font-feature-settings:normal;text-align:start" xml:space="preserve" font-weight="400" font-size="7.056" font-family="sans-serif" letter-spacing="0" word-spacing="0" fill="#2c3e50" stroke-width=".265" transform="translate(0 -244.083)"><tspan style="-inkscape-font-specification:'sans-serif, Normal';font-variant-ligatures:normal;font-variant-caps:normal;font-variant-numeric:normal;font-feature-settings:normal;text-align:start" y="277.875" x="40.292">de</tspan></text><g style="line-height:1.25;-inkscape-font-specification:'Symbol, Normal';font-variant-ligatures:normal;font-variant-caps:normal;font-variant-numeric:normal;font-feature-settings:normal;text-align:start" font-weight="400" font-size="25.4" font-family="Symbol" letter-spacing="0" word-spacing="0" fill="#16a085" stroke-width=".265"><path d="M27.015 277.57v7.479q0 1.488.136 2.083.112.422.335.608.223.186.471.186.31 0 .57-.31.274-.31.398-1.228h.508q-.21 1.662-.818 2.295-.608.632-1.538.632-.918 0-1.464-.558-.546-.558-.657-1.935-1.265 1.402-2.406 1.96-1.129.546-1.96.546-.558 0-1.091-.224-.533-.21-1.042-.632-.025 1.798.31 3.138.236.955.236 1.339 0 .67-.348 1.067-.334.396-.768.396-.447 0-.732-.347-.385-.471-.385-1.178 0-.347.15-.868.346-1.166.433-2.034.15-1.488.15-2.53v-9.885h2.083v7.156q0 1.265.21 1.823.211.558.757.881.546.322 1.091.322.645 0 1.526-.384.88-.385 1.786-1.24v-8.558z" transform="translate(0 -244.083)" aria-label="m"/></g><text y="288.987" x="30.238" style="line-height:1.25" xml:space="preserve" font-weight="400" font-size="10.583" font-family="sans-serif" letter-spacing="0" word-spacing="0" fill="#2c3e50" stroke-width=".265" transform="translate(0 -244.083)"><tspan y="288.987" x="30.238">ate</tspan></text></svg>