<svg xmlns="http://www.w3.org/2000/svg" width="200" height="200" viewBox="0 0 52.917 52.917"><path fill="#ecf0f1" fill-rule="evenodd" d="M0 0h52.917v52.917H0z"/><g style="line-height:1.25;-inkscape-font-specification:'Symbol, Normal';font-variant-ligatures:normal;font-variant-caps:normal;font-variant-numeric:normal;font-feature-settings:normal;text-align:start" font-weight="400" font-size="50.8" font-family="Symbol" letter-spacing="0" word-spacing="0" fill="#27ae60" stroke-width=".265"><path d="M37.643 266.058v3.597H31.64q-.868 5.68-.868 10.889 0 2.555.893 3.671.893 1.091 2.232 1.091 1.067 0 1.86-.744.794-.744 1.018-2.158h.868q-.422 3.92-1.885 5.532-1.439 1.612-3.25 1.612-1.934 0-3.224-1.761-1.29-1.761-1.29-6.573 0-3.027.942-11.56h-6.449q-.769 12.998-1.86 16.446-1.092 3.448-3.001 3.448-.893 0-1.489-.595-.57-.596-.57-1.489 0-.645.198-1.116.273-.645 1.166-1.81 1.513-2.01 2.108-4.217 1.067-3.77 1.39-10.666h-1.142q-1.81 0-2.703.595-1.439.893-2.63 2.976h-.967q1.39-4.29 3.25-5.928 1.413-1.24 3.968-1.24z" style="-inkscape-font-specification:'Symbol, Normal';font-variant-ligatures:normal;font-variant-caps:normal;font-variant-numeric:normal;font-feature-settings:normal;text-align:start" transform="translate(0 -246.2)" aria-label="p"/></g><g aria-label="Un100" style="line-height:1.25" font-weight="400" font-size="10.583" font-family="sans-serif" letter-spacing="0" word-spacing="0" fill="#2980b9" stroke-width=".265"><path d="M13.88 14.62q.665.51 1.048 1.038.382.521.456 1.105.07.555-.111 1.087-.18.533-.611 1.094-.44.574-.92.885-.478.31-.997.375-.59.074-1.18-.143-.585-.221-1.278-.753l-3.654-2.801.622-.812 3.695 2.833q.497.38.834.535.34.15.697.17.405.023.776-.18.374-.208.707-.643.337-.439.442-.847.1-.411-.03-.804-.11-.339-.36-.634-.25-.302-.696-.645l-3.716-2.849.623-.812zM22.301 13.297l-.877.417-1.412-2.967q-.171-.36-.362-.652-.193-.297-.39-.422-.21-.14-.473-.129-.266.006-.616.173-.36.171-.667.535-.307.364-.536.81l1.852 3.892-.877.417-2.48-5.212.877-.418.275.58q.249-.537.596-.937.348-.4.81-.62.844-.402 1.53-.104.685.297 1.14 1.254zM28.832 12.84l-4.165.024-.005-.786 1.602-.009-.03-5.157-1.602.009-.004-.703q.325-.002.697-.056.372-.059.562-.163.237-.13.37-.328.139-.202.157-.538l.801-.005.041 6.935 1.571-.01zM37.164 11.906q-.872 1.88-1.871 2.487-.993.605-2.23.03-1.257-.582-1.425-1.742-.163-1.159.694-3.006.863-1.86 1.86-2.475 1-.619 2.241-.042 1.257.583 1.414 1.755.163 1.17-.683 2.993zm-2.22 1.556q.34-.303.634-.788.3-.487.635-1.21.33-.712.513-1.265.187-.551.188-.995.003-.437-.198-.753-.196-.313-.641-.52-.441-.204-.817-.156-.37.05-.71.342-.321.273-.64.803-.316.531-.625 1.197-.34.731-.516 1.247-.177.516-.188.984-.015.437.177.76.197.325.665.542.441.205.816.157.376-.048.707-.345zM43.095 17.921q-1.59 1.328-2.754 1.45-1.156.124-2.03-.923-.888-1.063-.545-2.184.347-1.117 1.91-2.422 1.575-1.315 2.738-1.445 1.168-.133 2.046.918.887 1.063.529 2.19-.351 1.128-1.894 2.416zm-2.672.46q.437-.13.91-.442.479-.313 1.09-.823.603-.504 1.004-.926.404-.419.595-.82.19-.394.142-.765-.044-.367-.359-.744-.311-.373-.671-.49-.357-.112-.79.007-.406.11-.92.452-.513.347-1.076.817-.619.517-.999.908t-.59.81q-.2.388-.164.762.04.378.37.775.312.373.672.49.36.116.786-.01z"/></g></svg>