<svg xmlns:osb="http://www.openswatchbook.org/uri/2009/osb" xmlns="http://www.w3.org/2000/svg" xmlns:xlink="http://www.w3.org/1999/xlink" width="200" height="200" viewBox="0 0 52.917 52.917"><defs><linearGradient id="d"><stop offset="0" stop-color="#27ae60"/><stop offset=".447" stop-color="#bdc3c7"/><stop offset="1" stop-color="#c0392b"/></linearGradient><linearGradient id="c"><stop offset="0" stop-color="#27ae60"/><stop offset=".545" stop-color="#bdc3c7"/><stop offset="1" stop-color="#c0392b"/></linearGradient><linearGradient id="b" osb:paint="solid"><stop offset="0" stop-color="#2c3e50"/></linearGradient><linearGradient id="a" osb:paint="solid"><stop offset="0" stop-color="#16a085"/></linearGradient><linearGradient xlink:href="#a" id="k" x1="16.77" y1="285.991" x2="29.433" y2="285.991" gradientUnits="userSpaceOnUse"/><linearGradient xlink:href="#b" id="l" x1="26.542" y1="279.002" x2="42.335" y2="279.002" gradientUnits="userSpaceOnUse"/><linearGradient xlink:href="#d" id="e" gradientUnits="userSpaceOnUse" gradientTransform="translate(18.924 3.704)" x1="-11.978" y1="261.59" x2="32.199" y2="261.59"/><linearGradient xlink:href="#c" id="f" gradientUnits="userSpaceOnUse" gradientTransform="translate(18.924 3.704)" x1="-11.978" y1="261.59" x2="32.199" y2="261.59"/><linearGradient xlink:href="#c" id="g" gradientUnits="userSpaceOnUse" gradientTransform="translate(18.924 3.704)" x1="-11.978" y1="261.59" x2="32.199" y2="261.59"/><linearGradient xlink:href="#c" id="h" gradientUnits="userSpaceOnUse" gradientTransform="translate(18.924 3.704)" x1="-11.978" y1="261.59" x2="32.199" y2="261.59"/><linearGradient xlink:href="#c" id="i" gradientUnits="userSpaceOnUse" gradientTransform="translate(18.924 3.704)" x1="-11.978" y1="261.59" x2="32.199" y2="261.59"/><linearGradient xlink:href="#c" id="j" gradientUnits="userSpaceOnUse" gradientTransform="translate(18.924 3.704)" x1="-11.978" y1="261.59" x2="32.199" y2="261.59"/></defs><path fill="#ecf0f1" fill-rule="evenodd" d="M0 0h52.917v52.917H0z"/><g aria-label="UnADM" style="line-height:1.25;-inkscape-font-specification:'sans-serif, Normal';font-variant-ligatures:normal;font-variant-caps:normal;font-variant-numeric:normal;font-feature-settings:normal;text-align:start" transform="translate(1.382 -226.912) scale(.94764)" font-weight="400" font-size="11.289" font-family="sans-serif" letter-spacing="0" word-spacing="0" fill="url(#e)" fill-rule="evenodd" stroke-width=".265"><path d="M12.348 259.811c.453.385.795.787 1.027 1.2.232.409.343.85.335 1.323-.007.451-.107.9-.299 1.351-.192.451-.48.928-.865 1.435-.395.518-.79.935-1.193 1.249-.403.313-.81.53-1.225.646a2.642 2.642 0 0 1-1.38.034c-.443-.116-.916-.356-1.418-.722l-3.969-2.891c.282-.39.566-.781.853-1.174l4.006 2.943c.359.263.664.44.917.531.256.087.524.118.803.093a1.95 1.95 0 0 0 .94-.36c.313-.215.618-.522.92-.918.303-.4.516-.77.639-1.119.12-.35.15-.682.092-.998a1.861 1.861 0 0 0-.316-.75 3.646 3.646 0 0 0-.707-.73l-3.877-3.148c.32-.392.644-.782.975-1.171l3.742 3.176z" style="-inkscape-font-specification:'sans-serif, Normal';font-variant-ligatures:normal;font-variant-caps:normal;font-variant-numeric:normal;font-feature-settings:normal;text-align:start" fill="url(#f)"/><path d="M20.868 256.271c-.296.205-.592.424-.888.656l-2.135-2.807a4.473 4.473 0 0 0-.536-.595c-.188-.173-.373-.278-.555-.315a1.063 1.063 0 0 0-.643.072c-.235.091-.5.261-.787.512-.295.259-.55.586-.76.979a5.745 5.745 0 0 0-.48 1.22l3.254 3.246c-.291.29-.578.585-.862.887l-4.485-4.21c.324-.345.654-.687.99-1.025l.484.482a5.75 5.75 0 0 1 .55-1.422 4.29 4.29 0 0 1 .972-1.18c.73-.62 1.455-.9 2.094-.86.645.042 1.16.396 1.577 1.025l2.21 3.335z" style="-inkscape-font-specification:'sans-serif, Normal';font-variant-ligatures:normal;font-variant-caps:normal;font-variant-numeric:normal;font-feature-settings:normal;text-align:start" fill="url(#g)"/><path d="M28.2 254.859a9.97 9.97 0 0 0-1.051-.254 15.972 15.972 0 0 0-.546-2.358 8.507 8.507 0 0 0-2.81.223 9.63 9.63 0 0 0-1.06.294c-.041.813-.023 1.618.047 2.413-.318.14-.635.302-.952.484-.443-2.782-.338-5.689.677-8.69.038-.1.077-.2.118-.3a17.63 17.63 0 0 1 2.614-.296c1.88 2.637 2.776 5.572 2.963 8.484zm-1.937-3.56a15.015 15.015 0 0 0-2.253-3.883 14.585 14.585 0 0 0-.84 2.39c-.161.656-.278 1.308-.354 1.954.252-.076.506-.144.764-.202a9.706 9.706 0 0 1 2.683-.26z" style="-inkscape-font-specification:'sans-serif, Normal';font-variant-ligatures:normal;font-variant-caps:normal;font-variant-numeric:normal;font-feature-settings:normal;text-align:start" fill="url(#h)"/><path d="M38.374 256.494a3.67 3.67 0 0 1-1.827 1.065c-.7.18-1.395.19-2.094.05a6.6 6.6 0 0 1-1.451-.483c-.426-.195-.909-.467-1.512-.814a86.6 86.6 0 0 1-.265-.146c-.617-.343-1.25-.65-1.883-.906l3.012-7.687c1.064.409 2.077.912 3.024 1.491.151.093.296.185.434.278.828.544 1.451 1.06 1.875 1.496.501.51.868 1 1.11 1.454.41.781.57 1.54.504 2.258-.065.72-.384 1.363-.927 1.944zm-1.103-1.01c.416-.487.655-.992.7-1.528.043-.533-.1-1.1-.451-1.686a5.307 5.307 0 0 0-.975-1.185 9.446 9.446 0 0 0-1.227-.947 18.323 18.323 0 0 0-1.73-.99l-2.83 5.712c.333.162.663.337.986.52.082.047.161.092.24.135.425.245.805.45 1.158.615.423.199.848.336 1.286.41.545.093 1.048.066 1.514-.098.467-.16.915-.476 1.329-.959z" style="-inkscape-font-specification:'sans-serif, Normal';font-variant-ligatures:normal;font-variant-caps:normal;font-variant-numeric:normal;font-feature-settings:normal;text-align:start" fill="url(#i)"/><path d="M42.75 268.032c-.276-.375-.552-.749-.829-1.12l5.723-4.199c-1.903.12-3.807.279-5.681.505-.173-.22-.347-.438-.522-.655a60.637 60.637 0 0 0 1.72-5.434l-5.275 4.737c-.272-.307-.547-.609-.824-.905l5.947-5.66c.496.514.977 1.036 1.446 1.565a62.08 62.08 0 0 1-1.614 5.228 98.838 98.838 0 0 1 5.38-.525c.41.56.81 1.12 1.2 1.678l-6.671 4.785z" style="-inkscape-font-specification:'sans-serif, Normal';font-variant-ligatures:normal;font-variant-caps:normal;font-variant-numeric:normal;font-feature-settings:normal;text-align:start" fill="url(#j)"/></g><path d="M27.015 277.57v7.479q0 1.488.136 2.083.112.422.335.608.223.186.471.186.31 0 .57-.31.274-.31.398-1.228h.508q-.21 1.662-.818 2.295-.608.632-1.538.632-.918 0-1.464-.558-.546-.558-.657-1.935-1.265 1.402-2.406 1.96-1.129.546-1.96.546-.558 0-1.091-.224-.533-.21-1.042-.632-.025 1.798.31 3.138.236.955.236 1.339 0 .67-.348 1.067-.334.396-.768.396-.447 0-.732-.347-.385-.471-.385-1.178 0-.347.15-.868.346-1.166.433-2.034.15-1.488.15-2.53v-9.885h2.083v7.156q0 1.265.21 1.823.211.558.757.881.546.322 1.091.322.645 0 1.526-.384.88-.385 1.786-1.24v-8.558z" aria-label="m" style="line-height:1.25;-inkscape-font-specification:'Symbol, Normal';font-variant-ligatures:normal;font-variant-caps:normal;font-variant-numeric:normal;font-feature-settings:normal;text-align:start" transform="translate(-4.233 -250.433)" font-weight="400" font-size="25.4" font-family="Symbol" letter-spacing="0" word-spacing="0" fill="url(#k)" stroke-width=".265"/><text y="282.637" x="26.005" style="line-height:1.25" xml:space="preserve" font-weight="400" font-size="10.583" font-family="sans-serif" letter-spacing="0" word-spacing="0" fill="url(#l)" stroke-width=".265" transform="translate(0 -244.083)"><tspan y="282.637" x="26.005">ate</tspan></text></svg>